<?xml version="1.0" encoding="UTF-8" standalone="no"?>
<!DOCTYPE svg PUBLIC "-//W3C//DTD SVG 1.1//EN"
 "http://www.w3.org/Graphics/SVG/1.1/DTD/svg11.dtd">
<!-- Generated by graphviz version 2.40.1 (20161225.0304)
 -->
<!-- Title: dependencies Pages: 1 -->
<svg width="3083pt" height="284pt"
 viewBox="0.00 0.00 3083.00 284.00" xmlns="http://www.w3.org/2000/svg" xmlns:xlink="http://www.w3.org/1999/xlink">
<g id="graph0" class="graph" transform="scale(1 1) rotate(0) translate(4 280)">
<title>dependencies</title>
<polygon fill="#ffffff" stroke="transparent" points="-4,4 -4,-280 3079,-280 3079,4 -4,4"/>
<text text-anchor="start" x="1516.5091" y="-42.4" font-family="sans-serif" font-weight="bold" font-size="14.00" fill="#000000">Legend</text>
<polygon fill="#ffffb3" stroke="transparent" points="1303.5,-10 1303.5,-30 1323.5,-30 1323.5,-10 1303.5,-10"/>
<text text-anchor="start" x="1327.129" y="-15.4" font-family="sans-serif" font-size="14.00" fill="#000000"> &#160;Declarations</text>
<polygon fill="#8dd3c7" stroke="transparent" points="1416.5,-10 1416.5,-30 1436.5,-30 1436.5,-10 1416.5,-10"/>
<text text-anchor="start" x="1440.2251" y="-15.4" font-family="sans-serif" font-size="14.00" fill="#000000"> &#160;Module</text>
<polygon fill="#80b1d3" stroke="transparent" points="1502.5,-10 1502.5,-30 1522.5,-30 1522.5,-10 1502.5,-10"/>
<text text-anchor="start" x="1526.2812" y="-15.4" font-family="sans-serif" font-size="14.00" fill="#000000"> &#160;Bootstrap</text>
<polygon fill="#fdb462" stroke="transparent" points="1599.5,-10 1599.5,-30 1619.5,-30 1619.5,-10 1599.5,-10"/>
<text text-anchor="start" x="1623.1732" y="-15.4" font-family="sans-serif" font-size="14.00" fill="#000000"> &#160;Providers</text>
<polygon fill="#fb8072" stroke="transparent" points="1695.5,-10 1695.5,-30 1715.5,-30 1715.5,-10 1695.5,-10"/>
<text text-anchor="start" x="1719.2258" y="-15.4" font-family="sans-serif" font-size="14.00" fill="#000000"> &#160;Exports</text>
<g id="clust1" class="cluster">
<title>cluster_AppModule</title>
<polygon fill="none" stroke="#000000" stroke-dasharray="1,5" points="8,-70 8,-268 3067,-268 3067,-70 8,-70"/>
</g>
<g id="clust2" class="cluster">
<title>cluster_AppModule_declarations</title>
<polygon fill="none" stroke="#000000" points="274,-78 274,-130 3059,-130 3059,-78 274,-78"/>
</g>
<g id="clust19" class="cluster">
<title>cluster_AppModule_imports</title>
<polygon fill="none" stroke="#000000" points="122,-78 122,-130 266,-130 266,-78 122,-78"/>
</g>
<g id="clust21" class="cluster">
<title>cluster_AppModule_bootstrap</title>
<polygon fill="none" stroke="#000000" points="1549,-208 1549,-260 1673,-260 1673,-208 1549,-208"/>
</g>
<g id="clust22" class="cluster">
<title>cluster_AppModule_providers</title>
<polygon fill="none" stroke="#000000" points="16,-78 16,-130 114,-130 114,-78 16,-78"/>
</g>
<!-- AboutDialogComponent -->
<g id="node1" class="node">
<title>AboutDialogComponent</title>
<polygon fill="#ffffb3" stroke="#000000" points="3051.4326,-122 2896.5674,-122 2896.5674,-86 3051.4326,-86 3051.4326,-122"/>
<text text-anchor="middle" x="2974" y="-99.8" font-family="Times,serif" font-size="14.00" fill="#000000">AboutDialogComponent</text>
</g>
<!-- AppModule -->
<g id="node17" class="node">
<title>AppModule</title>
<polygon fill="#8dd3c7" stroke="#000000" points="1652.6571,-187 1649.6571,-191 1628.6571,-191 1625.6571,-187 1569.3429,-187 1569.3429,-151 1652.6571,-151 1652.6571,-187"/>
<text text-anchor="middle" x="1611" y="-164.8" font-family="Times,serif" font-size="14.00" fill="#000000">AppModule</text>
</g>
<!-- AboutDialogComponent&#45;&gt;AppModule -->
<g id="edge1" class="edge">
<title>AboutDialogComponent&#45;&gt;AppModule</title>
<path fill="none" stroke="#000000" d="M2974,-122.3228C2974,-145.6602 2974,-183 2974,-183 2974,-183 1662.9105,-183 1662.9105,-183"/>
<polygon fill="#000000" stroke="#000000" points="1662.9106,-179.5001 1652.9105,-183 1662.9105,-186.5001 1662.9106,-179.5001"/>
</g>
<!-- AdminComponent -->
<g id="node2" class="node">
<title>AdminComponent</title>
<polygon fill="#ffffb3" stroke="#000000" points="2879.2204,-122 2758.7796,-122 2758.7796,-86 2879.2204,-86 2879.2204,-122"/>
<text text-anchor="middle" x="2819" y="-99.8" font-family="Times,serif" font-size="14.00" fill="#000000">AdminComponent</text>
</g>
<!-- AdminComponent&#45;&gt;AppModule -->
<g id="edge2" class="edge">
<title>AdminComponent&#45;&gt;AppModule</title>
<path fill="none" stroke="#000000" d="M2819,-122.1554C2819,-144.3519 2819,-179 2819,-179 2819,-179 1662.9329,-179 1662.9329,-179"/>
<polygon fill="#000000" stroke="#000000" points="1662.9329,-175.5001 1652.9329,-179 1662.9329,-182.5001 1662.9329,-175.5001"/>
</g>
<!-- AppComponent -->
<g id="node3" class="node">
<title>AppComponent</title>
<polygon fill="#ffffb3" stroke="#000000" points="2740.9399,-122 2635.0601,-122 2635.0601,-86 2740.9399,-86 2740.9399,-122"/>
<text text-anchor="middle" x="2688" y="-99.8" font-family="Times,serif" font-size="14.00" fill="#000000">AppComponent</text>
</g>
<!-- AppComponent&#45;&gt;AppModule -->
<g id="edge3" class="edge">
<title>AppComponent&#45;&gt;AppModule</title>
<path fill="none" stroke="#000000" d="M2688,-122.2843C2688,-143.3211 2688,-175 2688,-175 2688,-175 1662.8891,-175 1662.8891,-175"/>
<polygon fill="#000000" stroke="#000000" points="1662.8892,-171.5001 1652.8891,-175 1662.8891,-178.5001 1662.8892,-171.5001"/>
</g>
<!-- EditUserInfoDialogComponent -->
<g id="node4" class="node">
<title>EditUserInfoDialogComponent</title>
<polygon fill="#ffffb3" stroke="#000000" points="2617.0168,-122 2424.9832,-122 2424.9832,-86 2617.0168,-86 2617.0168,-122"/>
<text text-anchor="middle" x="2521" y="-99.8" font-family="Times,serif" font-size="14.00" fill="#000000">EditUserInfoDialogComponent</text>
</g>
<!-- EditUserInfoDialogComponent&#45;&gt;AppModule -->
<g id="edge4" class="edge">
<title>EditUserInfoDialogComponent&#45;&gt;AppModule</title>
<path fill="none" stroke="#000000" d="M2521,-122.308C2521,-142.1455 2521,-171 2521,-171 2521,-171 1662.7653,-171 1662.7653,-171"/>
<polygon fill="#000000" stroke="#000000" points="1662.7653,-167.5001 1652.7653,-171 1662.7653,-174.5001 1662.7653,-167.5001"/>
</g>
<!-- HeaderComponent -->
<g id="node5" class="node">
<title>HeaderComponent</title>
<polygon fill="#ffffb3" stroke="#000000" points="2406.7437,-122 2285.2563,-122 2285.2563,-86 2406.7437,-86 2406.7437,-122"/>
<text text-anchor="middle" x="2346" y="-99.8" font-family="Times,serif" font-size="14.00" fill="#000000">HeaderComponent</text>
</g>
<!-- HeaderComponent&#45;&gt;AppModule -->
<g id="edge5" class="edge">
<title>HeaderComponent&#45;&gt;AppModule</title>
<path fill="none" stroke="#000000" d="M2346,-122.2222C2346,-140.8285 2346,-167 2346,-167 2346,-167 1662.8893,-167 1662.8893,-167"/>
<polygon fill="#000000" stroke="#000000" points="1662.8894,-163.5001 1652.8893,-167 1662.8893,-170.5001 1662.8894,-163.5001"/>
</g>
<!-- HelpComponent -->
<g id="node6" class="node">
<title>HelpComponent</title>
<polygon fill="#ffffb3" stroke="#000000" points="2267.0452,-122 2158.9548,-122 2158.9548,-86 2267.0452,-86 2267.0452,-122"/>
<text text-anchor="middle" x="2213" y="-99.8" font-family="Times,serif" font-size="14.00" fill="#000000">HelpComponent</text>
</g>
<!-- HelpComponent&#45;&gt;AppModule -->
<g id="edge6" class="edge">
<title>HelpComponent&#45;&gt;AppModule</title>
<path fill="none" stroke="#000000" d="M2213,-122.0225C2213,-139.3734 2213,-163 2213,-163 2213,-163 1662.8535,-163 1662.8535,-163"/>
<polygon fill="#000000" stroke="#000000" points="1662.8536,-159.5001 1652.8535,-163 1662.8535,-166.5001 1662.8536,-159.5001"/>
</g>
<!-- HomeComponent -->
<g id="node7" class="node">
<title>HomeComponent</title>
<polygon fill="#ffffb3" stroke="#000000" points="2140.5451,-122 2025.4549,-122 2025.4549,-86 2140.5451,-86 2140.5451,-122"/>
<text text-anchor="middle" x="2083" y="-99.8" font-family="Times,serif" font-size="14.00" fill="#000000">HomeComponent</text>
</g>
<!-- HomeComponent&#45;&gt;AppModule -->
<g id="edge7" class="edge">
<title>HomeComponent&#45;&gt;AppModule</title>
<path fill="none" stroke="#000000" d="M2083,-122.0091C2083,-138.0494 2083,-159 2083,-159 2083,-159 1662.8869,-159 1662.8869,-159"/>
<polygon fill="#000000" stroke="#000000" points="1662.8869,-155.5001 1652.8869,-159 1662.8868,-162.5001 1662.8869,-155.5001"/>
</g>
<!-- IncidentReportComponent -->
<g id="node8" class="node">
<title>IncidentReportComponent</title>
<polygon fill="#ffffb3" stroke="#000000" points="2007.8061,-122 1842.1939,-122 1842.1939,-86 2007.8061,-86 2007.8061,-122"/>
<text text-anchor="middle" x="1925" y="-99.8" font-family="Times,serif" font-size="14.00" fill="#000000">IncidentReportComponent</text>
</g>
<!-- IncidentReportComponent&#45;&gt;AppModule -->
<g id="edge8" class="edge">
<title>IncidentReportComponent&#45;&gt;AppModule</title>
<path fill="none" stroke="#000000" d="M1925,-122.1243C1925,-136.7832 1925,-155 1925,-155 1925,-155 1662.6968,-155 1662.6968,-155"/>
<polygon fill="#000000" stroke="#000000" points="1662.6968,-151.5001 1652.6968,-155 1662.6967,-158.5001 1662.6968,-151.5001"/>
</g>
<!-- IncidentReportStatusComponent -->
<g id="node9" class="node">
<title>IncidentReportStatusComponent</title>
<polygon fill="#ffffb3" stroke="#000000" points="1824.5294,-122 1625.4706,-122 1625.4706,-86 1824.5294,-86 1824.5294,-122"/>
<text text-anchor="middle" x="1725" y="-99.8" font-family="Times,serif" font-size="14.00" fill="#000000">IncidentReportStatusComponent</text>
</g>
<!-- IncidentReportStatusComponent&#45;&gt;AppModule -->
<g id="edge9" class="edge">
<title>IncidentReportStatusComponent&#45;&gt;AppModule</title>
<path fill="none" stroke="#000000" d="M1639.0319,-122.1061C1639.0319,-122.1061 1639.0319,-140.991 1639.0319,-140.991"/>
<polygon fill="#000000" stroke="#000000" points="1635.532,-140.9909 1639.0319,-150.991 1642.532,-140.991 1635.532,-140.9909"/>
</g>
<!-- InsertNewAnimalDialogComponent -->
<g id="node10" class="node">
<title>InsertNewAnimalDialogComponent</title>
<polygon fill="#ffffb3" stroke="#000000" points="1606.7268,-122 1387.2732,-122 1387.2732,-86 1606.7268,-86 1606.7268,-122"/>
<text text-anchor="middle" x="1497" y="-99.8" font-family="Times,serif" font-size="14.00" fill="#000000">InsertNewAnimalDialogComponent</text>
</g>
<!-- InsertNewAnimalDialogComponent&#45;&gt;AppModule -->
<g id="edge10" class="edge">
<title>InsertNewAnimalDialogComponent&#45;&gt;AppModule</title>
<path fill="none" stroke="#000000" d="M1588.0176,-122.1061C1588.0176,-122.1061 1588.0176,-140.991 1588.0176,-140.991"/>
<polygon fill="#000000" stroke="#000000" points="1584.5176,-140.9909 1588.0176,-150.991 1591.5176,-140.991 1584.5176,-140.9909"/>
</g>
<!-- InsertNewItemDialogComponent -->
<g id="node11" class="node">
<title>InsertNewItemDialogComponent</title>
<polygon fill="#ffffb3" stroke="#000000" points="1368.8904,-122 1165.1096,-122 1165.1096,-86 1368.8904,-86 1368.8904,-122"/>
<text text-anchor="middle" x="1267" y="-99.8" font-family="Times,serif" font-size="14.00" fill="#000000">InsertNewItemDialogComponent</text>
</g>
<!-- InsertNewItemDialogComponent&#45;&gt;AppModule -->
<g id="edge11" class="edge">
<title>InsertNewItemDialogComponent&#45;&gt;AppModule</title>
<path fill="none" stroke="#000000" d="M1267,-122.1243C1267,-136.7832 1267,-155 1267,-155 1267,-155 1559.1628,-155 1559.1628,-155"/>
<polygon fill="#000000" stroke="#000000" points="1559.1628,-158.5001 1569.1628,-155 1559.1627,-151.5001 1559.1628,-158.5001"/>
</g>
<!-- LoginComponent -->
<g id="node12" class="node">
<title>LoginComponent</title>
<polygon fill="#ffffb3" stroke="#000000" points="1147.2758,-122 1032.7242,-122 1032.7242,-86 1147.2758,-86 1147.2758,-122"/>
<text text-anchor="middle" x="1090" y="-99.8" font-family="Times,serif" font-size="14.00" fill="#000000">LoginComponent</text>
</g>
<!-- LoginComponent&#45;&gt;AppModule -->
<g id="edge12" class="edge">
<title>LoginComponent&#45;&gt;AppModule</title>
<path fill="none" stroke="#000000" d="M1090,-122.0091C1090,-138.0494 1090,-159 1090,-159 1090,-159 1559.2451,-159 1559.2451,-159"/>
<polygon fill="#000000" stroke="#000000" points="1559.2451,-162.5001 1569.2451,-159 1559.245,-155.5001 1559.2451,-162.5001"/>
</g>
<!-- MasterApprovedComponent -->
<g id="node13" class="node">
<title>MasterApprovedComponent</title>
<polygon fill="#ffffb3" stroke="#000000" points="1015.1839,-122 838.8161,-122 838.8161,-86 1015.1839,-86 1015.1839,-122"/>
<text text-anchor="middle" x="927" y="-99.8" font-family="Times,serif" font-size="14.00" fill="#000000">MasterApprovedComponent</text>
</g>
<!-- MasterApprovedComponent&#45;&gt;AppModule -->
<g id="edge13" class="edge">
<title>MasterApprovedComponent&#45;&gt;AppModule</title>
<path fill="none" stroke="#000000" d="M927,-122.0225C927,-139.3734 927,-163 927,-163 927,-163 1559.2424,-163 1559.2424,-163"/>
<polygon fill="#000000" stroke="#000000" points="1559.2424,-166.5001 1569.2424,-163 1559.2423,-159.5001 1559.2424,-166.5001"/>
</g>
<!-- RequestFormComponent -->
<g id="node14" class="node">
<title>RequestFormComponent</title>
<polygon fill="#ffffb3" stroke="#000000" points="821.2674,-122 664.7326,-122 664.7326,-86 821.2674,-86 821.2674,-122"/>
<text text-anchor="middle" x="743" y="-99.8" font-family="Times,serif" font-size="14.00" fill="#000000">RequestFormComponent</text>
</g>
<!-- RequestFormComponent&#45;&gt;AppModule -->
<g id="edge14" class="edge">
<title>RequestFormComponent&#45;&gt;AppModule</title>
<path fill="none" stroke="#000000" d="M743,-122.2222C743,-140.8285 743,-167 743,-167 743,-167 1559.1346,-167 1559.1346,-167"/>
<polygon fill="#000000" stroke="#000000" points="1559.1346,-170.5001 1569.1346,-167 1559.1345,-163.5001 1559.1346,-170.5001"/>
</g>
<!-- RequestFormStatusComponent -->
<g id="node15" class="node">
<title>RequestFormStatusComponent</title>
<polygon fill="#ffffb3" stroke="#000000" points="646.4902,-122 455.5098,-122 455.5098,-86 646.4902,-86 646.4902,-122"/>
<text text-anchor="middle" x="551" y="-99.8" font-family="Times,serif" font-size="14.00" fill="#000000">RequestFormStatusComponent</text>
</g>
<!-- RequestFormStatusComponent&#45;&gt;AppModule -->
<g id="edge15" class="edge">
<title>RequestFormStatusComponent&#45;&gt;AppModule</title>
<path fill="none" stroke="#000000" d="M551,-122.308C551,-142.1455 551,-171 551,-171 551,-171 1559.1203,-171 1559.1203,-171"/>
<polygon fill="#000000" stroke="#000000" points="1559.1203,-174.5001 1569.1203,-171 1559.1202,-167.5001 1559.1203,-174.5001"/>
</g>
<!-- UserAccountComponent -->
<g id="node16" class="node">
<title>UserAccountComponent</title>
<polygon fill="#ffffb3" stroke="#000000" points="437.6853,-122 282.3147,-122 282.3147,-86 437.6853,-86 437.6853,-122"/>
<text text-anchor="middle" x="360" y="-99.8" font-family="Times,serif" font-size="14.00" fill="#000000">UserAccountComponent</text>
</g>
<!-- UserAccountComponent&#45;&gt;AppModule -->
<g id="edge16" class="edge">
<title>UserAccountComponent&#45;&gt;AppModule</title>
<path fill="none" stroke="#000000" d="M360,-122.2843C360,-143.3211 360,-175 360,-175 360,-175 1559.0193,-175 1559.0193,-175"/>
<polygon fill="#000000" stroke="#000000" points="1559.0193,-178.5001 1569.0193,-175 1559.0192,-171.5001 1559.0193,-178.5001"/>
</g>
<!-- AppComponent  -->
<g id="node19" class="node">
<title>AppComponent </title>
<polygon fill="#80b1d3" stroke="#000000" points="1665.439,-252 1556.561,-252 1556.561,-216 1665.439,-216 1665.439,-252"/>
<text text-anchor="middle" x="1611" y="-229.8" font-family="Times,serif" font-size="14.00" fill="#000000">AppComponent </text>
</g>
<!-- AppModule&#45;&gt;AppComponent  -->
<g id="edge18" class="edge">
<title>AppModule&#45;&gt;AppComponent </title>
<path fill="none" stroke="#000000" stroke-dasharray="1,5" d="M1611,-187.1061C1611,-187.1061 1611,-205.991 1611,-205.991"/>
<polygon fill="#000000" stroke="#000000" points="1607.5001,-205.9909 1611,-215.991 1614.5001,-205.991 1607.5001,-205.9909"/>
</g>
<!-- AppRoutingModule -->
<g id="node18" class="node">
<title>AppRoutingModule</title>
<polygon fill="#8dd3c7" stroke="#000000" points="258.2744,-122 255.2744,-126 234.2744,-126 231.2744,-122 129.7256,-122 129.7256,-86 258.2744,-86 258.2744,-122"/>
<text text-anchor="middle" x="194" y="-99.8" font-family="Times,serif" font-size="14.00" fill="#000000">AppRoutingModule</text>
</g>
<!-- AppRoutingModule&#45;&gt;AppModule -->
<g id="edge17" class="edge">
<title>AppRoutingModule&#45;&gt;AppModule</title>
<path fill="none" stroke="#000000" d="M194,-122.1554C194,-144.3519 194,-179 194,-179 194,-179 1558.9764,-179 1558.9764,-179"/>
<polygon fill="#000000" stroke="#000000" points="1558.9765,-182.5001 1568.9764,-179 1558.9764,-175.5001 1558.9765,-182.5001"/>
</g>
<!-- Globals -->
<g id="node20" class="node">
<title>Globals</title>
<ellipse fill="#fdb462" stroke="#000000" cx="65" cy="-104" rx="41.149" ry="18"/>
<text text-anchor="middle" x="65" y="-99.8" font-family="Times,serif" font-size="14.00" fill="#000000">Globals</text>
</g>
<!-- Globals&#45;&gt;AppModule -->
<g id="edge19" class="edge">
<title>Globals&#45;&gt;AppModule</title>
<path fill="none" stroke="#000000" d="M65,-122.3228C65,-145.6602 65,-183 65,-183 65,-183 1559.2482,-183 1559.2482,-183"/>
<polygon fill="#000000" stroke="#000000" points="1559.2483,-186.5001 1569.2482,-183 1559.2482,-179.5001 1559.2483,-186.5001"/>
</g>
</g>
</svg>
